<mxfile host="app.diagrams.net" modified="2024-05-11T13:32:18.034Z" agent="Mozilla/5.0 (Windows NT 10.0; Win64; x64) AppleWebKit/537.36 (KHTML, like Gecko) Chrome/124.0.0.0 Safari/537.36 Edg/124.0.0.0" etag="OGNlABJKd4v5WWHveuI-" version="24.4.0" type="device">
  <diagram id="C5RBs43oDa-KdzZeNtuy" name="Page-1">
    <mxGraphModel dx="3963" dy="2972" grid="1" gridSize="10" guides="1" tooltips="1" connect="1" arrows="1" fold="1" page="1" pageScale="1" pageWidth="827" pageHeight="1169" math="0" shadow="0">
      <root>
        <mxCell id="WIyWlLk6GJQsqaUBKTNV-0" />
        <mxCell id="WIyWlLk6GJQsqaUBKTNV-1" parent="WIyWlLk6GJQsqaUBKTNV-0" />
        <mxCell id="bnzY2dnX7XNxloHDyXie-4" style="edgeStyle=orthogonalEdgeStyle;rounded=0;orthogonalLoop=1;jettySize=auto;html=1;endArrow=classic;endFill=1;fontSize=11;" edge="1" parent="WIyWlLk6GJQsqaUBKTNV-1" source="bnzY2dnX7XNxloHDyXie-1" target="bnzY2dnX7XNxloHDyXie-3">
          <mxGeometry relative="1" as="geometry" />
        </mxCell>
        <mxCell id="bnzY2dnX7XNxloHDyXie-1" value="Start" style="strokeWidth=2;html=1;shape=mxgraph.flowchart.start_1;whiteSpace=wrap;fontSize=11;fillColor=#FFFFCC;" vertex="1" parent="WIyWlLk6GJQsqaUBKTNV-1">
          <mxGeometry x="13.5" y="350" width="100" height="60" as="geometry" />
        </mxCell>
        <mxCell id="bnzY2dnX7XNxloHDyXie-6" style="edgeStyle=orthogonalEdgeStyle;rounded=0;orthogonalLoop=1;jettySize=auto;html=1;fontSize=11;" edge="1" parent="WIyWlLk6GJQsqaUBKTNV-1" source="bnzY2dnX7XNxloHDyXie-3" target="bnzY2dnX7XNxloHDyXie-5">
          <mxGeometry relative="1" as="geometry" />
        </mxCell>
        <mxCell id="bnzY2dnX7XNxloHDyXie-3" value="Fill up form" style="shape=parallelogram;html=1;strokeWidth=2;perimeter=parallelogramPerimeter;whiteSpace=wrap;rounded=1;arcSize=12;size=0.23;fontSize=11;fillColor=#CCFFCC;" vertex="1" parent="WIyWlLk6GJQsqaUBKTNV-1">
          <mxGeometry x="-135" y="350" width="100" height="60" as="geometry" />
        </mxCell>
        <mxCell id="bnzY2dnX7XNxloHDyXie-137" style="edgeStyle=none;rounded=0;orthogonalLoop=1;jettySize=auto;html=1;entryX=0;entryY=0.5;entryDx=0;entryDy=0;exitX=0;exitY=0.5;exitDx=0;exitDy=0;fontSize=11;" edge="1" parent="WIyWlLk6GJQsqaUBKTNV-1" source="bnzY2dnX7XNxloHDyXie-5">
          <mxGeometry relative="1" as="geometry">
            <mxPoint x="-240" y="1405" as="targetPoint" />
            <Array as="points">
              <mxPoint x="-470" y="380" />
              <mxPoint x="-470" y="1410" />
            </Array>
          </mxGeometry>
        </mxCell>
        <mxCell id="bnzY2dnX7XNxloHDyXie-5" value="Register" style="rounded=1;whiteSpace=wrap;html=1;absoluteArcSize=1;arcSize=14;strokeWidth=2;fontSize=11;fillColor=#CCE5FF;" vertex="1" parent="WIyWlLk6GJQsqaUBKTNV-1">
          <mxGeometry x="-290" y="350" width="100" height="60" as="geometry" />
        </mxCell>
        <mxCell id="bnzY2dnX7XNxloHDyXie-201" style="edgeStyle=none;rounded=0;orthogonalLoop=1;jettySize=auto;html=1;exitX=0.5;exitY=1;exitDx=0;exitDy=0;exitPerimeter=0;entryX=0.5;entryY=0;entryDx=0;entryDy=0;" edge="1" parent="WIyWlLk6GJQsqaUBKTNV-1" source="bnzY2dnX7XNxloHDyXie-7" target="bnzY2dnX7XNxloHDyXie-202">
          <mxGeometry relative="1" as="geometry">
            <mxPoint x="-16.647058823529278" y="1470" as="targetPoint" />
          </mxGeometry>
        </mxCell>
        <mxCell id="bnzY2dnX7XNxloHDyXie-7" value="Database" style="strokeWidth=2;html=1;shape=mxgraph.flowchart.database;whiteSpace=wrap;fontSize=11;fillColor=#66FFFF;" vertex="1" parent="WIyWlLk6GJQsqaUBKTNV-1">
          <mxGeometry x="-51.25" y="1350" width="70" height="70" as="geometry" />
        </mxCell>
        <mxCell id="bnzY2dnX7XNxloHDyXie-12" value="Login" style="shape=parallelogram;html=1;strokeWidth=2;perimeter=parallelogramPerimeter;whiteSpace=wrap;rounded=1;arcSize=12;size=0.23;fontSize=11;fillColor=#CCFFCC;" vertex="1" parent="WIyWlLk6GJQsqaUBKTNV-1">
          <mxGeometry x="-300" y="480" width="100" height="60" as="geometry" />
        </mxCell>
        <mxCell id="bnzY2dnX7XNxloHDyXie-33" style="edgeStyle=orthogonalEdgeStyle;rounded=0;orthogonalLoop=1;jettySize=auto;html=1;exitX=0;exitY=0.5;exitDx=0;exitDy=0;exitPerimeter=0;entryX=0;entryY=0.5;entryDx=0;entryDy=0;fontSize=11;" edge="1" parent="WIyWlLk6GJQsqaUBKTNV-1" source="bnzY2dnX7XNxloHDyXie-14" target="bnzY2dnX7XNxloHDyXie-12">
          <mxGeometry relative="1" as="geometry">
            <mxPoint x="-360" y="490" as="targetPoint" />
            <Array as="points">
              <mxPoint x="-340" y="650" />
              <mxPoint x="-340" y="510" />
            </Array>
          </mxGeometry>
        </mxCell>
        <mxCell id="bnzY2dnX7XNxloHDyXie-14" value="Verify" style="strokeWidth=2;html=1;shape=mxgraph.flowchart.decision;whiteSpace=wrap;fontSize=11;fillColor=#E5CCFF;" vertex="1" parent="WIyWlLk6GJQsqaUBKTNV-1">
          <mxGeometry x="-295" y="610" width="90" height="80" as="geometry" />
        </mxCell>
        <mxCell id="bnzY2dnX7XNxloHDyXie-41" style="edgeStyle=orthogonalEdgeStyle;rounded=0;orthogonalLoop=1;jettySize=auto;html=1;exitX=0.5;exitY=1;exitDx=0;exitDy=0;exitPerimeter=0;fontSize=11;" edge="1" parent="WIyWlLk6GJQsqaUBKTNV-1" source="bnzY2dnX7XNxloHDyXie-43">
          <mxGeometry relative="1" as="geometry">
            <mxPoint x="-15.333333333333258" y="730" as="targetPoint" />
          </mxGeometry>
        </mxCell>
        <mxCell id="bnzY2dnX7XNxloHDyXie-46" style="edgeStyle=orthogonalEdgeStyle;rounded=0;orthogonalLoop=1;jettySize=auto;html=1;exitX=0.5;exitY=1;exitDx=0;exitDy=0;exitPerimeter=0;entryX=0.5;entryY=0;entryDx=0;entryDy=0;fontSize=11;" edge="1" parent="WIyWlLk6GJQsqaUBKTNV-1" source="bnzY2dnX7XNxloHDyXie-21" target="bnzY2dnX7XNxloHDyXie-47">
          <mxGeometry relative="1" as="geometry">
            <mxPoint x="-15.258064516129025" y="810" as="targetPoint" />
          </mxGeometry>
        </mxCell>
        <mxCell id="bnzY2dnX7XNxloHDyXie-21" value="Seller or Customer" style="strokeWidth=2;html=1;shape=mxgraph.flowchart.decision;whiteSpace=wrap;fontSize=11;fillColor=#E5CCFF;" vertex="1" parent="WIyWlLk6GJQsqaUBKTNV-1">
          <mxGeometry x="-60" y="610" width="90" height="80" as="geometry" />
        </mxCell>
        <mxCell id="bnzY2dnX7XNxloHDyXie-22" style="edgeStyle=orthogonalEdgeStyle;rounded=0;orthogonalLoop=1;jettySize=auto;html=1;entryX=0;entryY=0.5;entryDx=0;entryDy=0;entryPerimeter=0;fontSize=11;" edge="1" parent="WIyWlLk6GJQsqaUBKTNV-1" source="bnzY2dnX7XNxloHDyXie-14" target="bnzY2dnX7XNxloHDyXie-21">
          <mxGeometry relative="1" as="geometry" />
        </mxCell>
        <mxCell id="bnzY2dnX7XNxloHDyXie-19" value="" style="group;labelBackgroundColor=#FFFFFF;fontSize=11;" vertex="1" connectable="0" parent="WIyWlLk6GJQsqaUBKTNV-1">
          <mxGeometry x="-385" y="560" width="95" height="30" as="geometry" />
        </mxCell>
        <mxCell id="bnzY2dnX7XNxloHDyXie-18" value="&lt;span style=&quot;background-color: rgb(255, 255, 255); font-size: 11px;&quot;&gt;Unsuccessful&lt;/span&gt;" style="text;html=1;align=center;verticalAlign=middle;resizable=0;points=[];autosize=1;strokeColor=none;fillColor=none;fontSize=11;" vertex="1" parent="bnzY2dnX7XNxloHDyXie-19">
          <mxGeometry width="90" height="30" as="geometry" />
        </mxCell>
        <mxCell id="bnzY2dnX7XNxloHDyXie-25" value="Admin site" style="rounded=1;whiteSpace=wrap;html=1;absoluteArcSize=1;arcSize=14;strokeWidth=2;fontSize=11;fillColor=#CCE5FF;" vertex="1" parent="WIyWlLk6GJQsqaUBKTNV-1">
          <mxGeometry x="-240" y="1355" width="100" height="60" as="geometry" />
        </mxCell>
        <mxCell id="bnzY2dnX7XNxloHDyXie-32" style="edgeStyle=orthogonalEdgeStyle;rounded=0;orthogonalLoop=1;jettySize=auto;html=1;exitX=0.5;exitY=1;exitDx=0;exitDy=0;entryX=0.5;entryY=0;entryDx=0;entryDy=0;entryPerimeter=0;fontSize=11;" edge="1" parent="WIyWlLk6GJQsqaUBKTNV-1" source="bnzY2dnX7XNxloHDyXie-12" target="bnzY2dnX7XNxloHDyXie-14">
          <mxGeometry relative="1" as="geometry" />
        </mxCell>
        <mxCell id="bnzY2dnX7XNxloHDyXie-34" style="edgeStyle=orthogonalEdgeStyle;rounded=0;orthogonalLoop=1;jettySize=auto;html=1;entryX=1;entryY=0.5;entryDx=0;entryDy=0;entryPerimeter=0;fontSize=11;" edge="1" parent="WIyWlLk6GJQsqaUBKTNV-1" source="bnzY2dnX7XNxloHDyXie-21" target="bnzY2dnX7XNxloHDyXie-14">
          <mxGeometry relative="1" as="geometry" />
        </mxCell>
        <mxCell id="bnzY2dnX7XNxloHDyXie-36" value="Successful" style="text;align=center;verticalAlign=middle;resizable=0;points=[];autosize=1;strokeColor=none;fillColor=none;labelBackgroundColor=#FFFFFF;html=1;fontSize=11;" vertex="1" parent="WIyWlLk6GJQsqaUBKTNV-1">
          <mxGeometry x="-180" y="635" width="80" height="30" as="geometry" />
        </mxCell>
        <mxCell id="bnzY2dnX7XNxloHDyXie-40" style="edgeStyle=orthogonalEdgeStyle;rounded=0;orthogonalLoop=1;jettySize=auto;html=1;exitX=0;exitY=0.25;exitDx=0;exitDy=0;entryX=0.367;entryY=-0.003;entryDx=0;entryDy=0;entryPerimeter=0;fontSize=11;" edge="1" parent="WIyWlLk6GJQsqaUBKTNV-1" source="bnzY2dnX7XNxloHDyXie-12" target="bnzY2dnX7XNxloHDyXie-7">
          <mxGeometry relative="1" as="geometry">
            <mxPoint x="-294.5291479820628" y="499.5712556053811" as="sourcePoint" />
            <mxPoint x="-35.92999999999995" y="1350" as="targetPoint" />
            <Array as="points">
              <mxPoint x="-430" y="500" />
              <mxPoint x="-430" y="1280" />
              <mxPoint x="-26" y="1280" />
              <mxPoint x="-26" y="1350" />
            </Array>
          </mxGeometry>
        </mxCell>
        <mxCell id="bnzY2dnX7XNxloHDyXie-91" value="" style="edgeStyle=orthogonalEdgeStyle;rounded=0;orthogonalLoop=1;jettySize=auto;html=1;fontSize=11;" edge="1" parent="WIyWlLk6GJQsqaUBKTNV-1" source="bnzY2dnX7XNxloHDyXie-43" target="bnzY2dnX7XNxloHDyXie-47">
          <mxGeometry relative="1" as="geometry" />
        </mxCell>
        <mxCell id="bnzY2dnX7XNxloHDyXie-43" value="Customer" style="text;align=center;verticalAlign=middle;resizable=0;points=[];autosize=1;strokeColor=none;fillColor=none;labelBackgroundColor=#FFFFFF;html=1;fontSize=11;" vertex="1" parent="WIyWlLk6GJQsqaUBKTNV-1">
          <mxGeometry x="-50" y="700" width="70" height="30" as="geometry" />
        </mxCell>
        <mxCell id="bnzY2dnX7XNxloHDyXie-48" style="edgeStyle=orthogonalEdgeStyle;rounded=0;orthogonalLoop=1;jettySize=auto;html=1;exitX=0;exitY=0.5;exitDx=0;exitDy=0;entryX=1;entryY=0.5;entryDx=0;entryDy=0;fontSize=11;" edge="1" parent="WIyWlLk6GJQsqaUBKTNV-1" source="bnzY2dnX7XNxloHDyXie-47" target="bnzY2dnX7XNxloHDyXie-54">
          <mxGeometry relative="1" as="geometry">
            <mxPoint x="-15" y="820" as="targetPoint" />
          </mxGeometry>
        </mxCell>
        <mxCell id="bnzY2dnX7XNxloHDyXie-159" style="edgeStyle=none;rounded=0;orthogonalLoop=1;jettySize=auto;html=1;exitX=1;exitY=0.5;exitDx=0;exitDy=0;entryX=0;entryY=0.5;entryDx=0;entryDy=0;" edge="1" parent="WIyWlLk6GJQsqaUBKTNV-1" source="bnzY2dnX7XNxloHDyXie-47" target="bnzY2dnX7XNxloHDyXie-162">
          <mxGeometry relative="1" as="geometry">
            <mxPoint x="60" y="769.6190476190475" as="targetPoint" />
            <Array as="points">
              <mxPoint x="50" y="770" />
              <mxPoint x="50" y="730" />
            </Array>
          </mxGeometry>
        </mxCell>
        <mxCell id="bnzY2dnX7XNxloHDyXie-169" style="edgeStyle=none;rounded=0;orthogonalLoop=1;jettySize=auto;html=1;exitX=1;exitY=0.5;exitDx=0;exitDy=0;entryX=0;entryY=0.5;entryDx=0;entryDy=0;" edge="1" parent="WIyWlLk6GJQsqaUBKTNV-1" source="bnzY2dnX7XNxloHDyXie-47" target="bnzY2dnX7XNxloHDyXie-168">
          <mxGeometry relative="1" as="geometry">
            <Array as="points">
              <mxPoint x="50" y="770" />
              <mxPoint x="50" y="815" />
            </Array>
          </mxGeometry>
        </mxCell>
        <mxCell id="bnzY2dnX7XNxloHDyXie-47" value="Home" style="rounded=1;whiteSpace=wrap;html=1;absoluteArcSize=1;arcSize=14;strokeWidth=2;fontSize=11;fillColor=#CCE5FF;" vertex="1" parent="WIyWlLk6GJQsqaUBKTNV-1">
          <mxGeometry x="-55" y="750" width="80" height="40" as="geometry" />
        </mxCell>
        <mxCell id="bnzY2dnX7XNxloHDyXie-67" style="edgeStyle=orthogonalEdgeStyle;rounded=0;orthogonalLoop=1;jettySize=auto;html=1;entryX=1;entryY=0.5;entryDx=0;entryDy=0;fontSize=11;" edge="1" parent="WIyWlLk6GJQsqaUBKTNV-1" source="bnzY2dnX7XNxloHDyXie-54" target="bnzY2dnX7XNxloHDyXie-56">
          <mxGeometry relative="1" as="geometry" />
        </mxCell>
        <mxCell id="bnzY2dnX7XNxloHDyXie-54" value="Categories" style="html=1;strokeWidth=2;shape=manualInput;whiteSpace=wrap;rounded=1;size=13;arcSize=11;fontSize=11;fillColor=#FFE6CC;" vertex="1" parent="WIyWlLk6GJQsqaUBKTNV-1">
          <mxGeometry x="-160" y="745" width="75" height="50" as="geometry" />
        </mxCell>
        <mxCell id="bnzY2dnX7XNxloHDyXie-56" value="Shop-menu" style="html=1;strokeWidth=2;shape=manualInput;whiteSpace=wrap;rounded=1;size=13;arcSize=11;fontSize=11;fillColor=#FFE6CC;" vertex="1" parent="WIyWlLk6GJQsqaUBKTNV-1">
          <mxGeometry x="-260" y="745" width="75" height="50" as="geometry" />
        </mxCell>
        <mxCell id="bnzY2dnX7XNxloHDyXie-60" value="Add to cart" style="rounded=1;whiteSpace=wrap;html=1;absoluteArcSize=1;arcSize=14;strokeWidth=2;fontSize=11;fillColor=#CCE5FF;" vertex="1" parent="WIyWlLk6GJQsqaUBKTNV-1">
          <mxGeometry x="-371.25" y="835" width="97.5" height="40" as="geometry" />
        </mxCell>
        <mxCell id="bnzY2dnX7XNxloHDyXie-191" style="edgeStyle=none;rounded=0;orthogonalLoop=1;jettySize=auto;html=1;exitX=0;exitY=0.5;exitDx=0;exitDy=0;exitPerimeter=0;entryX=0;entryY=0.5;entryDx=0;entryDy=0;" edge="1" parent="WIyWlLk6GJQsqaUBKTNV-1" source="bnzY2dnX7XNxloHDyXie-62" target="bnzY2dnX7XNxloHDyXie-70">
          <mxGeometry relative="1" as="geometry">
            <Array as="points">
              <mxPoint x="-390" y="970" />
              <mxPoint x="-390" y="770" />
            </Array>
          </mxGeometry>
        </mxCell>
        <mxCell id="bnzY2dnX7XNxloHDyXie-196" style="edgeStyle=none;rounded=0;orthogonalLoop=1;jettySize=auto;html=1;entryX=0.5;entryY=0;entryDx=0;entryDy=0;" edge="1" parent="WIyWlLk6GJQsqaUBKTNV-1" source="bnzY2dnX7XNxloHDyXie-62" target="bnzY2dnX7XNxloHDyXie-79">
          <mxGeometry relative="1" as="geometry" />
        </mxCell>
        <mxCell id="bnzY2dnX7XNxloHDyXie-62" value="Check out" style="strokeWidth=2;html=1;shape=mxgraph.flowchart.decision;whiteSpace=wrap;fontSize=11;fillColor=#E5CCFF;" vertex="1" parent="WIyWlLk6GJQsqaUBKTNV-1">
          <mxGeometry x="-60" y="930" width="90" height="80" as="geometry" />
        </mxCell>
        <mxCell id="bnzY2dnX7XNxloHDyXie-69" style="edgeStyle=orthogonalEdgeStyle;rounded=0;orthogonalLoop=1;jettySize=auto;html=1;entryX=1;entryY=0.5;entryDx=0;entryDy=0;exitX=0;exitY=0.5;exitDx=0;exitDy=0;fontSize=11;" edge="1" parent="WIyWlLk6GJQsqaUBKTNV-1" target="bnzY2dnX7XNxloHDyXie-70" source="bnzY2dnX7XNxloHDyXie-56">
          <mxGeometry relative="1" as="geometry">
            <mxPoint x="-260" y="775" as="sourcePoint" />
          </mxGeometry>
        </mxCell>
        <mxCell id="bnzY2dnX7XNxloHDyXie-73" style="edgeStyle=orthogonalEdgeStyle;rounded=0;orthogonalLoop=1;jettySize=auto;html=1;exitX=0.5;exitY=1;exitDx=0;exitDy=0;entryX=0.5;entryY=0;entryDx=0;entryDy=0;fontSize=11;" edge="1" parent="WIyWlLk6GJQsqaUBKTNV-1" source="bnzY2dnX7XNxloHDyXie-70" target="bnzY2dnX7XNxloHDyXie-60">
          <mxGeometry relative="1" as="geometry" />
        </mxCell>
        <mxCell id="bnzY2dnX7XNxloHDyXie-70" value="Products" style="html=1;strokeWidth=2;shape=manualInput;whiteSpace=wrap;rounded=1;size=13;arcSize=11;fontSize=11;fillColor=#FFE6CC;" vertex="1" parent="WIyWlLk6GJQsqaUBKTNV-1">
          <mxGeometry x="-360" y="745" width="75" height="50" as="geometry" />
        </mxCell>
        <mxCell id="bnzY2dnX7XNxloHDyXie-74" style="edgeStyle=orthogonalEdgeStyle;rounded=0;orthogonalLoop=1;jettySize=auto;html=1;exitX=0.5;exitY=1;exitDx=0;exitDy=0;entryX=0.5;entryY=0;entryDx=0;entryDy=0;entryPerimeter=0;fontSize=11;" edge="1" parent="WIyWlLk6GJQsqaUBKTNV-1" source="bnzY2dnX7XNxloHDyXie-60" target="bnzY2dnX7XNxloHDyXie-62">
          <mxGeometry relative="1" as="geometry" />
        </mxCell>
        <mxCell id="bnzY2dnX7XNxloHDyXie-187" value="" style="edgeStyle=none;rounded=0;orthogonalLoop=1;jettySize=auto;html=1;" edge="1" parent="WIyWlLk6GJQsqaUBKTNV-1" source="bnzY2dnX7XNxloHDyXie-79" target="bnzY2dnX7XNxloHDyXie-82">
          <mxGeometry relative="1" as="geometry" />
        </mxCell>
        <mxCell id="bnzY2dnX7XNxloHDyXie-79" value="Payment" style="shape=parallelogram;html=1;strokeWidth=2;perimeter=parallelogramPerimeter;whiteSpace=wrap;rounded=1;arcSize=12;size=0.23;fontSize=11;fillColor=#CCFFCC;" vertex="1" parent="WIyWlLk6GJQsqaUBKTNV-1">
          <mxGeometry x="-65" y="1070" width="100" height="60" as="geometry" />
        </mxCell>
        <mxCell id="bnzY2dnX7XNxloHDyXie-89" style="edgeStyle=orthogonalEdgeStyle;rounded=0;orthogonalLoop=1;jettySize=auto;html=1;exitX=0.5;exitY=1;exitDx=0;exitDy=0;entryX=0.5;entryY=0;entryDx=0;entryDy=0;entryPerimeter=0;fontSize=11;" edge="1" parent="WIyWlLk6GJQsqaUBKTNV-1" source="bnzY2dnX7XNxloHDyXie-82" target="bnzY2dnX7XNxloHDyXie-7">
          <mxGeometry relative="1" as="geometry" />
        </mxCell>
        <mxCell id="bnzY2dnX7XNxloHDyXie-237" style="edgeStyle=none;rounded=0;orthogonalLoop=1;jettySize=auto;html=1;exitX=1;exitY=0.5;exitDx=0;exitDy=0;entryX=0;entryY=0.5;entryDx=0;entryDy=0;" edge="1" parent="WIyWlLk6GJQsqaUBKTNV-1" source="bnzY2dnX7XNxloHDyXie-93" target="bnzY2dnX7XNxloHDyXie-234">
          <mxGeometry relative="1" as="geometry" />
        </mxCell>
        <mxCell id="bnzY2dnX7XNxloHDyXie-93" value="Home" style="rounded=1;whiteSpace=wrap;html=1;absoluteArcSize=1;arcSize=14;strokeWidth=2;fontSize=11;fillColor=#CCE5FF;" vertex="1" parent="WIyWlLk6GJQsqaUBKTNV-1">
          <mxGeometry x="-55" y="510" width="80" height="40" as="geometry" />
        </mxCell>
        <mxCell id="bnzY2dnX7XNxloHDyXie-94" style="edgeStyle=orthogonalEdgeStyle;rounded=0;orthogonalLoop=1;jettySize=auto;html=1;exitX=0.5;exitY=0;exitDx=0;exitDy=0;exitPerimeter=0;entryX=0.489;entryY=1.078;entryDx=0;entryDy=0;entryPerimeter=0;fontSize=11;" edge="1" parent="WIyWlLk6GJQsqaUBKTNV-1" source="bnzY2dnX7XNxloHDyXie-21">
          <mxGeometry relative="1" as="geometry">
            <mxPoint x="-14.550000000000011" y="606.88" as="sourcePoint" />
            <mxPoint x="-15.430000000000007" y="549.9999999999999" as="targetPoint" />
          </mxGeometry>
        </mxCell>
        <mxCell id="bnzY2dnX7XNxloHDyXie-95" value="Seller" style="edgeLabel;html=1;align=center;verticalAlign=middle;resizable=0;points=[];fontSize=11;" vertex="1" connectable="0" parent="bnzY2dnX7XNxloHDyXie-94">
          <mxGeometry x="-0.2955" y="-1" relative="1" as="geometry">
            <mxPoint x="-3" y="-4" as="offset" />
          </mxGeometry>
        </mxCell>
        <mxCell id="bnzY2dnX7XNxloHDyXie-138" style="edgeStyle=none;rounded=0;orthogonalLoop=1;jettySize=auto;html=1;exitX=1;exitY=0.5;exitDx=0;exitDy=0;entryX=0;entryY=0.5;entryDx=0;entryDy=0;fontSize=11;" edge="1" parent="WIyWlLk6GJQsqaUBKTNV-1" source="bnzY2dnX7XNxloHDyXie-97" target="bnzY2dnX7XNxloHDyXie-139">
          <mxGeometry relative="1" as="geometry">
            <mxPoint x="366.81" y="440.217391304348" as="targetPoint" />
          </mxGeometry>
        </mxCell>
        <mxCell id="bnzY2dnX7XNxloHDyXie-97" value="Dashboard" style="rounded=1;whiteSpace=wrap;html=1;absoluteArcSize=1;arcSize=14;strokeWidth=2;fontSize=11;fillColor=#FF9999;" vertex="1" parent="WIyWlLk6GJQsqaUBKTNV-1">
          <mxGeometry x="251.81" y="420" width="80" height="40" as="geometry" />
        </mxCell>
        <mxCell id="bnzY2dnX7XNxloHDyXie-153" style="edgeStyle=none;rounded=0;orthogonalLoop=1;jettySize=auto;html=1;exitX=1;exitY=0.5;exitDx=0;exitDy=0;entryX=0;entryY=0.5;entryDx=0;entryDy=0;fontSize=11;" edge="1" parent="WIyWlLk6GJQsqaUBKTNV-1" source="bnzY2dnX7XNxloHDyXie-98" target="bnzY2dnX7XNxloHDyXie-151">
          <mxGeometry relative="1" as="geometry" />
        </mxCell>
        <mxCell id="bnzY2dnX7XNxloHDyXie-98" value="Inventory" style="rounded=1;whiteSpace=wrap;html=1;absoluteArcSize=1;arcSize=14;strokeWidth=2;fontSize=11;fillColor=#FF9999;" vertex="1" parent="WIyWlLk6GJQsqaUBKTNV-1">
          <mxGeometry x="251.81" y="480" width="80" height="40" as="geometry" />
        </mxCell>
        <mxCell id="bnzY2dnX7XNxloHDyXie-156" style="edgeStyle=none;rounded=0;orthogonalLoop=1;jettySize=auto;html=1;exitX=1;exitY=0.5;exitDx=0;exitDy=0;entryX=0;entryY=0.5;entryDx=0;entryDy=0;entryPerimeter=0;" edge="1" parent="WIyWlLk6GJQsqaUBKTNV-1" source="bnzY2dnX7XNxloHDyXie-99" target="bnzY2dnX7XNxloHDyXie-231">
          <mxGeometry relative="1" as="geometry">
            <mxPoint x="376.81" y="559.9999999999999" as="targetPoint" />
          </mxGeometry>
        </mxCell>
        <mxCell id="bnzY2dnX7XNxloHDyXie-99" value="Account" style="rounded=1;whiteSpace=wrap;html=1;absoluteArcSize=1;arcSize=14;strokeWidth=2;fontSize=11;fillColor=#FF9999;" vertex="1" parent="WIyWlLk6GJQsqaUBKTNV-1">
          <mxGeometry x="251.81" y="540" width="80" height="40" as="geometry" />
        </mxCell>
        <mxCell id="bnzY2dnX7XNxloHDyXie-157" style="edgeStyle=none;rounded=0;orthogonalLoop=1;jettySize=auto;html=1;exitX=1;exitY=0.5;exitDx=0;exitDy=0;entryX=0;entryY=0.5;entryDx=0;entryDy=0;" edge="1" parent="WIyWlLk6GJQsqaUBKTNV-1" source="bnzY2dnX7XNxloHDyXie-100" target="bnzY2dnX7XNxloHDyXie-155">
          <mxGeometry relative="1" as="geometry" />
        </mxCell>
        <mxCell id="bnzY2dnX7XNxloHDyXie-100" value="Orders" style="rounded=1;whiteSpace=wrap;html=1;absoluteArcSize=1;arcSize=14;strokeWidth=2;fontSize=11;fillColor=#FF9999;" vertex="1" parent="WIyWlLk6GJQsqaUBKTNV-1">
          <mxGeometry x="251.81" y="600" width="80" height="40" as="geometry" />
        </mxCell>
        <mxCell id="bnzY2dnX7XNxloHDyXie-134" value="" style="edgeStyle=none;orthogonalLoop=1;jettySize=auto;html=1;rounded=0;entryX=0;entryY=0.5;entryDx=0;entryDy=0;fontSize=11;" edge="1" parent="WIyWlLk6GJQsqaUBKTNV-1" target="bnzY2dnX7XNxloHDyXie-98">
          <mxGeometry width="80" relative="1" as="geometry">
            <mxPoint x="200" y="500" as="sourcePoint" />
            <mxPoint x="159.99999999999994" y="649.69" as="targetPoint" />
            <Array as="points" />
          </mxGeometry>
        </mxCell>
        <mxCell id="bnzY2dnX7XNxloHDyXie-136" style="edgeStyle=none;rounded=0;orthogonalLoop=1;jettySize=auto;html=1;exitX=1;exitY=0.5;exitDx=0;exitDy=0;entryX=0;entryY=0.5;entryDx=0;entryDy=0;entryPerimeter=0;fontSize=11;" edge="1" parent="WIyWlLk6GJQsqaUBKTNV-1" source="bnzY2dnX7XNxloHDyXie-25" target="bnzY2dnX7XNxloHDyXie-7">
          <mxGeometry relative="1" as="geometry" />
        </mxCell>
        <mxCell id="bnzY2dnX7XNxloHDyXie-180" style="edgeStyle=none;rounded=0;orthogonalLoop=1;jettySize=auto;html=1;exitX=1;exitY=0.5;exitDx=0;exitDy=0;entryX=0.982;entryY=0.656;entryDx=0;entryDy=0;entryPerimeter=0;" edge="1" parent="WIyWlLk6GJQsqaUBKTNV-1" source="bnzY2dnX7XNxloHDyXie-139" target="bnzY2dnX7XNxloHDyXie-7">
          <mxGeometry relative="1" as="geometry">
            <mxPoint x="100.00000000000006" y="1395.5699999999997" as="targetPoint" />
            <Array as="points">
              <mxPoint x="561.81" y="440" />
              <mxPoint x="561.81" y="1396" />
            </Array>
          </mxGeometry>
        </mxCell>
        <mxCell id="bnzY2dnX7XNxloHDyXie-139" value="Sales Record" style="rounded=1;whiteSpace=wrap;html=1;absoluteArcSize=1;arcSize=14;strokeWidth=2;fontSize=11;fillColor=#CCE5FF;" vertex="1" parent="WIyWlLk6GJQsqaUBKTNV-1">
          <mxGeometry x="401.81" y="420" width="80" height="40" as="geometry" />
        </mxCell>
        <mxCell id="bnzY2dnX7XNxloHDyXie-151" value="Product Management" style="rounded=1;whiteSpace=wrap;html=1;absoluteArcSize=1;arcSize=14;strokeWidth=2;fontSize=11;fillColor=#CCE5FF;" vertex="1" parent="WIyWlLk6GJQsqaUBKTNV-1">
          <mxGeometry x="401.81" y="480" width="80" height="40" as="geometry" />
        </mxCell>
        <mxCell id="bnzY2dnX7XNxloHDyXie-155" value="Orders Queue" style="rounded=1;whiteSpace=wrap;html=1;absoluteArcSize=1;arcSize=14;strokeWidth=2;fontSize=11;fillColor=#CCE5FF;" vertex="1" parent="WIyWlLk6GJQsqaUBKTNV-1">
          <mxGeometry x="401.81" y="600" width="80" height="40" as="geometry" />
        </mxCell>
        <mxCell id="bnzY2dnX7XNxloHDyXie-158" style="edgeStyle=none;rounded=0;orthogonalLoop=1;jettySize=auto;html=1;exitX=1;exitY=0.5;exitDx=0;exitDy=0;entryX=0.994;entryY=0.335;entryDx=0;entryDy=0;entryPerimeter=0;" edge="1" parent="WIyWlLk6GJQsqaUBKTNV-1" source="bnzY2dnX7XNxloHDyXie-155" target="bnzY2dnX7XNxloHDyXie-7">
          <mxGeometry relative="1" as="geometry">
            <mxPoint x="441.81" y="610" as="sourcePoint" />
            <mxPoint x="100.2100000000001" y="1374.9199999999996" as="targetPoint" />
            <Array as="points">
              <mxPoint x="542" y="620" />
              <mxPoint x="541.81" y="1375" />
            </Array>
          </mxGeometry>
        </mxCell>
        <mxCell id="bnzY2dnX7XNxloHDyXie-182" style="edgeStyle=none;rounded=0;orthogonalLoop=1;jettySize=auto;html=1;exitX=1;exitY=0.5;exitDx=0;exitDy=0;entryX=0;entryY=0.5;entryDx=0;entryDy=0;" edge="1" parent="WIyWlLk6GJQsqaUBKTNV-1" source="bnzY2dnX7XNxloHDyXie-162" target="bnzY2dnX7XNxloHDyXie-181">
          <mxGeometry relative="1" as="geometry">
            <mxPoint x="200" y="730" as="sourcePoint" />
          </mxGeometry>
        </mxCell>
        <mxCell id="bnzY2dnX7XNxloHDyXie-162" value="Profile" style="rounded=1;whiteSpace=wrap;html=1;absoluteArcSize=1;arcSize=14;strokeWidth=2;fontSize=11;fillColor=#CCE5FF;" vertex="1" parent="WIyWlLk6GJQsqaUBKTNV-1">
          <mxGeometry x="80" y="710" width="80" height="40" as="geometry" />
        </mxCell>
        <mxCell id="bnzY2dnX7XNxloHDyXie-168" value="Cart" style="rounded=1;whiteSpace=wrap;html=1;absoluteArcSize=1;arcSize=14;strokeWidth=2;fontSize=11;fillColor=#CCE5FF;" vertex="1" parent="WIyWlLk6GJQsqaUBKTNV-1">
          <mxGeometry x="80" y="795" width="80" height="40" as="geometry" />
        </mxCell>
        <mxCell id="bnzY2dnX7XNxloHDyXie-179" style="edgeStyle=none;rounded=0;orthogonalLoop=1;jettySize=auto;html=1;exitX=1;exitY=0.5;exitDx=0;exitDy=0;entryX=1;entryY=0.5;entryDx=0;entryDy=0;entryPerimeter=0;" edge="1" parent="WIyWlLk6GJQsqaUBKTNV-1" source="bnzY2dnX7XNxloHDyXie-151" target="bnzY2dnX7XNxloHDyXie-7">
          <mxGeometry relative="1" as="geometry">
            <mxPoint x="100.56" y="1385" as="targetPoint" />
            <Array as="points">
              <mxPoint x="551.81" y="500" />
              <mxPoint x="551.81" y="1385" />
            </Array>
          </mxGeometry>
        </mxCell>
        <mxCell id="bnzY2dnX7XNxloHDyXie-181" value="Account" style="rounded=1;whiteSpace=wrap;html=1;absoluteArcSize=1;arcSize=14;strokeWidth=2;fontSize=11;fillColor=#FF9999;" vertex="1" parent="WIyWlLk6GJQsqaUBKTNV-1">
          <mxGeometry x="251.81" y="710" width="80" height="40" as="geometry" />
        </mxCell>
        <mxCell id="bnzY2dnX7XNxloHDyXie-183" style="edgeStyle=none;rounded=0;orthogonalLoop=1;jettySize=auto;html=1;exitX=1;exitY=0.5;exitDx=0;exitDy=0;entryX=0;entryY=0.5;entryDx=0;entryDy=0;entryPerimeter=0;" edge="1" parent="WIyWlLk6GJQsqaUBKTNV-1" target="bnzY2dnX7XNxloHDyXie-232" source="bnzY2dnX7XNxloHDyXie-181">
          <mxGeometry relative="1" as="geometry">
            <mxPoint x="325" y="730" as="sourcePoint" />
            <mxPoint x="345" y="729.9999999999999" as="targetPoint" />
          </mxGeometry>
        </mxCell>
        <mxCell id="bnzY2dnX7XNxloHDyXie-82" value="Receipt" style="rounded=1;whiteSpace=wrap;html=1;absoluteArcSize=1;arcSize=14;strokeWidth=2;fontSize=11;fillColor=#CCE5FF;" vertex="1" parent="WIyWlLk6GJQsqaUBKTNV-1">
          <mxGeometry x="-56.25" y="1180" width="80" height="40" as="geometry" />
        </mxCell>
        <mxCell id="bnzY2dnX7XNxloHDyXie-189" style="edgeStyle=none;rounded=0;orthogonalLoop=1;jettySize=auto;html=1;exitX=0.5;exitY=1;exitDx=0;exitDy=0;entryX=1;entryY=0.5;entryDx=0;entryDy=0;entryPerimeter=0;" edge="1" parent="WIyWlLk6GJQsqaUBKTNV-1" source="bnzY2dnX7XNxloHDyXie-168" target="bnzY2dnX7XNxloHDyXie-62">
          <mxGeometry relative="1" as="geometry">
            <Array as="points">
              <mxPoint x="120" y="970" />
            </Array>
          </mxGeometry>
        </mxCell>
        <mxCell id="bnzY2dnX7XNxloHDyXie-192" style="edgeStyle=none;rounded=0;orthogonalLoop=1;jettySize=auto;html=1;exitX=0.75;exitY=1;exitDx=0;exitDy=0;" edge="1" parent="WIyWlLk6GJQsqaUBKTNV-1" source="bnzY2dnX7XNxloHDyXie-60" target="bnzY2dnX7XNxloHDyXie-60">
          <mxGeometry relative="1" as="geometry" />
        </mxCell>
        <mxCell id="bnzY2dnX7XNxloHDyXie-195" value="Yes" style="text;align=center;verticalAlign=middle;resizable=0;points=[];autosize=1;strokeColor=none;fillColor=none;labelBackgroundColor=#FFFFFF;html=1;fontSize=11;" vertex="1" parent="WIyWlLk6GJQsqaUBKTNV-1">
          <mxGeometry x="-36.25" y="1020" width="40" height="30" as="geometry" />
        </mxCell>
        <mxCell id="bnzY2dnX7XNxloHDyXie-197" value="Add to cart" style="text;align=center;verticalAlign=middle;resizable=0;points=[];autosize=1;strokeColor=none;fillColor=none;labelBackgroundColor=#FFFFFF;html=1;fontSize=11;" vertex="1" parent="WIyWlLk6GJQsqaUBKTNV-1">
          <mxGeometry x="-225" y="880" width="80" height="30" as="geometry" />
        </mxCell>
        <mxCell id="bnzY2dnX7XNxloHDyXie-199" value="No" style="text;align=center;verticalAlign=middle;resizable=0;points=[];autosize=1;strokeColor=none;fillColor=none;labelBackgroundColor=#FFFFFF;html=1;fontSize=11;" vertex="1" parent="WIyWlLk6GJQsqaUBKTNV-1">
          <mxGeometry x="-225" y="955" width="40" height="30" as="geometry" />
        </mxCell>
        <mxCell id="bnzY2dnX7XNxloHDyXie-205" style="edgeStyle=none;rounded=0;orthogonalLoop=1;jettySize=auto;html=1;entryX=0;entryY=0.5;entryDx=0;entryDy=0;" edge="1" parent="WIyWlLk6GJQsqaUBKTNV-1" source="bnzY2dnX7XNxloHDyXie-202" target="bnzY2dnX7XNxloHDyXie-204">
          <mxGeometry relative="1" as="geometry" />
        </mxCell>
        <mxCell id="bnzY2dnX7XNxloHDyXie-206" style="edgeStyle=none;rounded=0;orthogonalLoop=1;jettySize=auto;html=1;entryX=1;entryY=0.5;entryDx=0;entryDy=0;" edge="1" parent="WIyWlLk6GJQsqaUBKTNV-1" source="bnzY2dnX7XNxloHDyXie-202" target="bnzY2dnX7XNxloHDyXie-203">
          <mxGeometry relative="1" as="geometry" />
        </mxCell>
        <mxCell id="bnzY2dnX7XNxloHDyXie-202" value="Manage Users" style="rounded=1;whiteSpace=wrap;html=1;absoluteArcSize=1;arcSize=14;strokeWidth=2;fontSize=11;fillColor=#CCE5FF;" vertex="1" parent="WIyWlLk6GJQsqaUBKTNV-1">
          <mxGeometry x="-56.25" y="1490" width="80" height="40" as="geometry" />
        </mxCell>
        <mxCell id="bnzY2dnX7XNxloHDyXie-226" style="edgeStyle=none;rounded=0;orthogonalLoop=1;jettySize=auto;html=1;exitX=0.5;exitY=1;exitDx=0;exitDy=0;entryX=0.5;entryY=0;entryDx=0;entryDy=0;" edge="1" parent="WIyWlLk6GJQsqaUBKTNV-1" source="bnzY2dnX7XNxloHDyXie-203" target="bnzY2dnX7XNxloHDyXie-222">
          <mxGeometry relative="1" as="geometry" />
        </mxCell>
        <mxCell id="bnzY2dnX7XNxloHDyXie-203" value="Manage Admin" style="rounded=1;whiteSpace=wrap;html=1;absoluteArcSize=1;arcSize=14;strokeWidth=2;fontSize=11;fillColor=#CCE5FF;" vertex="1" parent="WIyWlLk6GJQsqaUBKTNV-1">
          <mxGeometry x="-262.5" y="1490" width="80" height="40" as="geometry" />
        </mxCell>
        <mxCell id="bnzY2dnX7XNxloHDyXie-230" style="edgeStyle=none;rounded=0;orthogonalLoop=1;jettySize=auto;html=1;exitX=0.5;exitY=1;exitDx=0;exitDy=0;entryX=0.5;entryY=0;entryDx=0;entryDy=0;" edge="1" parent="WIyWlLk6GJQsqaUBKTNV-1" source="bnzY2dnX7XNxloHDyXie-204" target="bnzY2dnX7XNxloHDyXie-229">
          <mxGeometry relative="1" as="geometry" />
        </mxCell>
        <mxCell id="bnzY2dnX7XNxloHDyXie-204" value="Manage Shops" style="rounded=1;whiteSpace=wrap;html=1;absoluteArcSize=1;arcSize=14;strokeWidth=2;fontSize=11;fillColor=#CCE5FF;" vertex="1" parent="WIyWlLk6GJQsqaUBKTNV-1">
          <mxGeometry x="160" y="1490" width="80" height="40" as="geometry" />
        </mxCell>
        <mxCell id="bnzY2dnX7XNxloHDyXie-218" style="edgeStyle=none;rounded=0;orthogonalLoop=1;jettySize=auto;html=1;exitX=0.5;exitY=1;exitDx=0;exitDy=0;exitPerimeter=0;entryX=0.5;entryY=0;entryDx=0;entryDy=0;" edge="1" parent="WIyWlLk6GJQsqaUBKTNV-1" source="bnzY2dnX7XNxloHDyXie-207" target="bnzY2dnX7XNxloHDyXie-213">
          <mxGeometry relative="1" as="geometry">
            <Array as="points">
              <mxPoint x="-70" y="1670" />
              <mxPoint x="-11" y="1670" />
            </Array>
          </mxGeometry>
        </mxCell>
        <mxCell id="bnzY2dnX7XNxloHDyXie-207" value="&lt;font style=&quot;font-size: 11px;&quot;&gt;Customers&lt;/font&gt;" style="strokeWidth=2;html=1;shape=mxgraph.flowchart.stored_data;whiteSpace=wrap;fillColor=#FFB366;" vertex="1" parent="WIyWlLk6GJQsqaUBKTNV-1">
          <mxGeometry x="-105" y="1600" width="70" height="40" as="geometry" />
        </mxCell>
        <mxCell id="bnzY2dnX7XNxloHDyXie-209" style="edgeStyle=none;rounded=0;orthogonalLoop=1;jettySize=auto;html=1;entryX=0.5;entryY=0;entryDx=0;entryDy=0;entryPerimeter=0;" edge="1" parent="WIyWlLk6GJQsqaUBKTNV-1" source="bnzY2dnX7XNxloHDyXie-202" target="bnzY2dnX7XNxloHDyXie-207">
          <mxGeometry relative="1" as="geometry">
            <Array as="points">
              <mxPoint x="-16" y="1570" />
              <mxPoint x="-70" y="1570" />
            </Array>
          </mxGeometry>
        </mxCell>
        <mxCell id="bnzY2dnX7XNxloHDyXie-219" style="edgeStyle=none;rounded=0;orthogonalLoop=1;jettySize=auto;html=1;exitX=0.5;exitY=1;exitDx=0;exitDy=0;exitPerimeter=0;entryX=0.5;entryY=0;entryDx=0;entryDy=0;" edge="1" parent="WIyWlLk6GJQsqaUBKTNV-1" source="bnzY2dnX7XNxloHDyXie-211" target="bnzY2dnX7XNxloHDyXie-213">
          <mxGeometry relative="1" as="geometry">
            <Array as="points">
              <mxPoint x="40" y="1670" />
              <mxPoint x="-11" y="1670" />
            </Array>
          </mxGeometry>
        </mxCell>
        <mxCell id="bnzY2dnX7XNxloHDyXie-211" value="&lt;font style=&quot;font-size: 11px;&quot;&gt;Sellers&lt;/font&gt;" style="strokeWidth=2;html=1;shape=mxgraph.flowchart.stored_data;whiteSpace=wrap;fillColor=#FFB366;" vertex="1" parent="WIyWlLk6GJQsqaUBKTNV-1">
          <mxGeometry x="5" y="1600" width="70" height="40" as="geometry" />
        </mxCell>
        <mxCell id="bnzY2dnX7XNxloHDyXie-212" style="edgeStyle=none;rounded=0;orthogonalLoop=1;jettySize=auto;html=1;exitX=0.5;exitY=1;exitDx=0;exitDy=0;entryX=0.5;entryY=0;entryDx=0;entryDy=0;entryPerimeter=0;" edge="1" parent="WIyWlLk6GJQsqaUBKTNV-1" source="bnzY2dnX7XNxloHDyXie-202" target="bnzY2dnX7XNxloHDyXie-211">
          <mxGeometry relative="1" as="geometry">
            <Array as="points">
              <mxPoint x="-16" y="1570" />
              <mxPoint x="40" y="1570" />
            </Array>
          </mxGeometry>
        </mxCell>
        <mxCell id="bnzY2dnX7XNxloHDyXie-216" style="edgeStyle=none;rounded=0;orthogonalLoop=1;jettySize=auto;html=1;exitX=0.5;exitY=1;exitDx=0;exitDy=0;entryX=0.5;entryY=0;entryDx=0;entryDy=0;" edge="1" parent="WIyWlLk6GJQsqaUBKTNV-1" source="bnzY2dnX7XNxloHDyXie-213" target="bnzY2dnX7XNxloHDyXie-214">
          <mxGeometry relative="1" as="geometry" />
        </mxCell>
        <mxCell id="bnzY2dnX7XNxloHDyXie-213" value="Add" style="rounded=1;whiteSpace=wrap;html=1;absoluteArcSize=1;arcSize=14;strokeWidth=2;fontSize=11;gradientColor=none;fillColor=#99FF99;" vertex="1" parent="WIyWlLk6GJQsqaUBKTNV-1">
          <mxGeometry x="-46.25" y="1710" width="70" height="40" as="geometry" />
        </mxCell>
        <mxCell id="bnzY2dnX7XNxloHDyXie-217" style="edgeStyle=none;rounded=0;orthogonalLoop=1;jettySize=auto;html=1;entryX=0.5;entryY=0;entryDx=0;entryDy=0;" edge="1" parent="WIyWlLk6GJQsqaUBKTNV-1" source="bnzY2dnX7XNxloHDyXie-214" target="bnzY2dnX7XNxloHDyXie-215">
          <mxGeometry relative="1" as="geometry" />
        </mxCell>
        <mxCell id="bnzY2dnX7XNxloHDyXie-227" style="edgeStyle=none;rounded=0;orthogonalLoop=1;jettySize=auto;html=1;exitX=1;exitY=0.5;exitDx=0;exitDy=0;entryX=0;entryY=0.5;entryDx=0;entryDy=0;" edge="1" parent="WIyWlLk6GJQsqaUBKTNV-1" source="bnzY2dnX7XNxloHDyXie-214" target="bnzY2dnX7XNxloHDyXie-228">
          <mxGeometry relative="1" as="geometry">
            <mxPoint x="50" y="1800.166666666667" as="targetPoint" />
          </mxGeometry>
        </mxCell>
        <mxCell id="bnzY2dnX7XNxloHDyXie-214" value="Update" style="rounded=1;whiteSpace=wrap;html=1;absoluteArcSize=1;arcSize=14;strokeWidth=2;fontSize=11;gradientColor=none;fillColor=#99FF99;" vertex="1" parent="WIyWlLk6GJQsqaUBKTNV-1">
          <mxGeometry x="-46.25" y="1780" width="70" height="40" as="geometry" />
        </mxCell>
        <mxCell id="bnzY2dnX7XNxloHDyXie-215" value="Delete" style="rounded=1;whiteSpace=wrap;html=1;absoluteArcSize=1;arcSize=14;strokeWidth=2;fontSize=11;gradientColor=none;fillColor=#99FF99;" vertex="1" parent="WIyWlLk6GJQsqaUBKTNV-1">
          <mxGeometry x="-46.25" y="1850" width="70" height="40" as="geometry" />
        </mxCell>
        <mxCell id="bnzY2dnX7XNxloHDyXie-221" style="edgeStyle=none;rounded=0;orthogonalLoop=1;jettySize=auto;html=1;exitX=0.5;exitY=1;exitDx=0;exitDy=0;entryX=0.5;entryY=0;entryDx=0;entryDy=0;" edge="1" parent="WIyWlLk6GJQsqaUBKTNV-1" source="bnzY2dnX7XNxloHDyXie-222" target="bnzY2dnX7XNxloHDyXie-224">
          <mxGeometry relative="1" as="geometry" />
        </mxCell>
        <mxCell id="bnzY2dnX7XNxloHDyXie-222" value="Add co-admin" style="rounded=1;whiteSpace=wrap;html=1;absoluteArcSize=1;arcSize=14;strokeWidth=2;fontSize=11;gradientColor=none;fillColor=#99FF99;" vertex="1" parent="WIyWlLk6GJQsqaUBKTNV-1">
          <mxGeometry x="-260" y="1710" width="70" height="40" as="geometry" />
        </mxCell>
        <mxCell id="bnzY2dnX7XNxloHDyXie-223" style="edgeStyle=none;rounded=0;orthogonalLoop=1;jettySize=auto;html=1;entryX=0.5;entryY=0;entryDx=0;entryDy=0;" edge="1" parent="WIyWlLk6GJQsqaUBKTNV-1" source="bnzY2dnX7XNxloHDyXie-224" target="bnzY2dnX7XNxloHDyXie-225">
          <mxGeometry relative="1" as="geometry" />
        </mxCell>
        <mxCell id="bnzY2dnX7XNxloHDyXie-224" value="Update Co-admin" style="rounded=1;whiteSpace=wrap;html=1;absoluteArcSize=1;arcSize=14;strokeWidth=2;fontSize=11;gradientColor=none;fillColor=#99FF99;" vertex="1" parent="WIyWlLk6GJQsqaUBKTNV-1">
          <mxGeometry x="-260" y="1780" width="70" height="40" as="geometry" />
        </mxCell>
        <mxCell id="bnzY2dnX7XNxloHDyXie-225" value="Delete Co-admin" style="rounded=1;whiteSpace=wrap;html=1;absoluteArcSize=1;arcSize=14;strokeWidth=2;fontSize=11;gradientColor=none;fillColor=#99FF99;" vertex="1" parent="WIyWlLk6GJQsqaUBKTNV-1">
          <mxGeometry x="-260" y="1850" width="70" height="40" as="geometry" />
        </mxCell>
        <mxCell id="bnzY2dnX7XNxloHDyXie-228" value="Ban" style="rounded=1;whiteSpace=wrap;html=1;absoluteArcSize=1;arcSize=14;strokeWidth=2;fontSize=11;gradientColor=none;fillColor=#99FF99;" vertex="1" parent="WIyWlLk6GJQsqaUBKTNV-1">
          <mxGeometry x="60" y="1780" width="70" height="40" as="geometry" />
        </mxCell>
        <mxCell id="bnzY2dnX7XNxloHDyXie-229" value="Update" style="rounded=1;whiteSpace=wrap;html=1;absoluteArcSize=1;arcSize=14;strokeWidth=2;fontSize=11;gradientColor=none;fillColor=#99FF99;" vertex="1" parent="WIyWlLk6GJQsqaUBKTNV-1">
          <mxGeometry x="165" y="1710" width="70" height="40" as="geometry" />
        </mxCell>
        <mxCell id="bnzY2dnX7XNxloHDyXie-231" value="Log out" style="strokeWidth=2;html=1;shape=mxgraph.flowchart.start_1;whiteSpace=wrap;fontSize=11;fillColor=#FFFFCC;" vertex="1" parent="WIyWlLk6GJQsqaUBKTNV-1">
          <mxGeometry x="401.81" y="535" width="80" height="50" as="geometry" />
        </mxCell>
        <mxCell id="bnzY2dnX7XNxloHDyXie-232" value="Log out" style="strokeWidth=2;html=1;shape=mxgraph.flowchart.start_1;whiteSpace=wrap;fontSize=11;fillColor=#FFFFCC;" vertex="1" parent="WIyWlLk6GJQsqaUBKTNV-1">
          <mxGeometry x="401.81" y="705" width="80" height="50" as="geometry" />
        </mxCell>
        <mxCell id="bnzY2dnX7XNxloHDyXie-236" style="edgeStyle=none;rounded=0;orthogonalLoop=1;jettySize=auto;html=1;entryX=0;entryY=0.5;entryDx=0;entryDy=0;exitX=1;exitY=0.5;exitDx=0;exitDy=0;" edge="1" parent="WIyWlLk6GJQsqaUBKTNV-1" source="bnzY2dnX7XNxloHDyXie-234" target="bnzY2dnX7XNxloHDyXie-97">
          <mxGeometry relative="1" as="geometry">
            <mxPoint x="130.00000000000023" y="535" as="sourcePoint" />
            <mxPoint x="251.80999999999995" y="445" as="targetPoint" />
            <Array as="points">
              <mxPoint x="200" y="530" />
              <mxPoint x="200" y="440" />
            </Array>
          </mxGeometry>
        </mxCell>
        <mxCell id="bnzY2dnX7XNxloHDyXie-234" value="Store" style="rounded=1;whiteSpace=wrap;html=1;absoluteArcSize=1;arcSize=14;strokeWidth=2;fontSize=11;fillColor=#CCE5FF;" vertex="1" parent="WIyWlLk6GJQsqaUBKTNV-1">
          <mxGeometry x="80" y="510" width="80" height="40" as="geometry" />
        </mxCell>
        <mxCell id="bnzY2dnX7XNxloHDyXie-238" value="" style="edgeStyle=none;orthogonalLoop=1;jettySize=auto;html=1;rounded=0;entryX=0;entryY=0.5;entryDx=0;entryDy=0;fontSize=11;exitX=1;exitY=0.5;exitDx=0;exitDy=0;" edge="1" parent="WIyWlLk6GJQsqaUBKTNV-1" source="bnzY2dnX7XNxloHDyXie-234">
          <mxGeometry width="80" relative="1" as="geometry">
            <mxPoint x="199.81" y="620" as="sourcePoint" />
            <mxPoint x="251.81" y="620" as="targetPoint" />
            <Array as="points">
              <mxPoint x="200" y="530" />
              <mxPoint x="200" y="620" />
            </Array>
          </mxGeometry>
        </mxCell>
        <mxCell id="bnzY2dnX7XNxloHDyXie-239" value="" style="edgeStyle=none;orthogonalLoop=1;jettySize=auto;html=1;rounded=0;fontSize=11;entryX=0;entryY=0.5;entryDx=0;entryDy=0;" edge="1" parent="WIyWlLk6GJQsqaUBKTNV-1" target="bnzY2dnX7XNxloHDyXie-99">
          <mxGeometry width="80" relative="1" as="geometry">
            <mxPoint x="199.81" y="559.71" as="sourcePoint" />
            <mxPoint x="240" y="580" as="targetPoint" />
            <Array as="points" />
          </mxGeometry>
        </mxCell>
      </root>
    </mxGraphModel>
  </diagram>
</mxfile>
